<svg width="1600" height="1000" viewBox="0 0 1600 1000" xmlns="http://www.w3.org/2000/svg">
  <defs>
    <marker id="arrow" markerWidth="10" markerHeight="10" refX="8" refY="5" orient="auto">
      <polygon points="2,2 8,5 2,8" fill="#64748b"/>
    </marker>
  </defs>

  <!-- Background -->
  <rect width="1600" height="1000" fill="#f8fafc"/>

  <!-- Title -->
  <text x="40" y="55" font-family="sans-serif" font-size="36" font-weight="700" fill="#1e293b">Entrix Lifecycle</text>
  <text x="40" y="85" font-family="sans-serif" font-size="17" font-weight="500" fill="#64748b">Executable guardrails shift quality earlier</text>

  <!-- Cost Bar -->
  <rect x="40" y="110" width="1520" height="8" rx="4" fill="#e2e8f0"/>
  <rect x="40" y="110" width="380" height="8" rx="4" fill="#10b981"/>
  <rect x="420" y="110" width="380" height="8" rx="4" fill="#f59e0b"/>
  <rect x="800" y="110" width="380" height="8" rx="4" fill="#f97316"/>
  <rect x="1180" y="110" width="380" height="8" rx="4" fill="#dc2626"/>

  <text x="40" y="140" font-family="sans-serif" font-size="12" font-weight="600" fill="#047857">LOW COST</text>
  <text x="1560" y="140" font-family="sans-serif" font-size="12" font-weight="600" fill="#b91c1c" text-anchor="end">HIGH COST</text>

  <!-- Stage 1 -->
  <rect x="40" y="170" width="280" height="90" rx="10" fill="#dbeafe" stroke="#3b82f6" stroke-width="2"/>
  <circle cx="68" cy="198" r="11" fill="#3b82f6"/>
  <text x="64" y="204" font-family="sans-serif" font-size="14" font-weight="700" fill="#fff">1</text>
  <text x="90" y="204" font-family="sans-serif" font-size="16" font-weight="700" fill="#1e293b">Policy Setup</text>
  <text x="58" y="226" font-family="sans-serif" font-size="13" fill="#475569">Define what must be proven</text>
  <text x="58" y="245" font-family="sans-serif" font-size="13" fill="#475569">safe before merge.</text>

  <!-- Arrow -->
  <path d="M320 215 H358" stroke="#64748b" stroke-width="2" marker-end="url(#arrow)" fill="none"/>

  <!-- Stage 2 -->
  <rect x="368" y="170" width="280" height="90" rx="10" fill="#d1fae5" stroke="#10b981" stroke-width="2"/>
  <circle cx="396" cy="198" r="11" fill="#10b981"/>
  <text x="392" y="204" font-family="sans-serif" font-size="14" font-weight="700" fill="#fff">2</text>
  <text x="418" y="204" font-family="sans-serif" font-size="16" font-weight="700" fill="#1e293b">Quality Gates</text>
  <text x="386" y="226" font-family="sans-serif" font-size="13" fill="#475569">Fast checks: compile, lint,</text>
  <text x="386" y="245" font-family="sans-serif" font-size="13" fill="#475569">tests, coverage.</text>

  <path d="M648 215 H686" stroke="#64748b" stroke-width="2" marker-end="url(#arrow)" fill="none"/>

  <!-- Stage 3 -->
  <rect x="696" y="170" width="280" height="90" rx="10" fill="#fef3c7" stroke="#f59e0b" stroke-width="2"/>
  <circle cx="724" cy="198" r="11" fill="#f59e0b"/>
  <text x="720" y="204" font-family="sans-serif" font-size="14" font-weight="700" fill="#fff">3</text>
  <text x="746" y="204" font-family="sans-serif" font-size="16" font-weight="700" fill="#1e293b">Risk Routing</text>
  <text x="714" y="226" font-family="sans-serif" font-size="13" fill="#475569">Measure risk via diff,</text>
  <text x="714" y="245" font-family="sans-serif" font-size="13" fill="#475569">graph, triggers.</text>

  <path d="M976 215 H1014" stroke="#64748b" stroke-width="2" marker-end="url(#arrow)" fill="none"/>

  <!-- Stage 4 -->
  <rect x="1024" y="170" width="280" height="90" rx="10" fill="#fee2e2" stroke="#ef4444" stroke-width="2"/>
  <circle cx="1052" cy="198" r="11" fill="#ef4444"/>
  <text x="1047" y="204" font-family="sans-serif" font-size="14" font-weight="700" fill="#fff">4</text>
  <text x="1074" y="204" font-family="sans-serif" font-size="16" font-weight="700" fill="#1e293b">Deep Validation</text>
  <text x="1042" y="226" font-family="sans-serif" font-size="13" fill="#475569">Expensive evidence:</text>
  <text x="1042" y="245" font-family="sans-serif" font-size="13" fill="#475569">E2E, security, perf.</text>

  <path d="M1304 215 H1342" stroke="#64748b" stroke-width="2" marker-end="url(#arrow)" fill="none"/>

  <!-- Stage 5 -->
  <rect x="1352" y="170" width="208" height="90" rx="10" fill="#f3e8ff" stroke="#a855f7" stroke-width="2"/>
  <circle cx="1380" cy="198" r="11" fill="#a855f7"/>
  <text x="1375" y="204" font-family="sans-serif" font-size="14" font-weight="700" fill="#fff">5</text>
  <text x="1402" y="204" font-family="sans-serif" font-size="16" font-weight="700" fill="#1e293b">Decision</text>
  <text x="1370" y="226" font-family="sans-serif" font-size="13" fill="#475569">Merge → new</text>
  <text x="1370" y="245" font-family="sans-serif" font-size="13" fill="#475569">rules, tuning.</text>

  <!-- Details -->
  <rect x="40" y="280" width="280" height="100" rx="8" fill="#fff" stroke="#cbd5e1"/>
  <text x="52" y="302" font-family="sans-serif" font-size="12" fill="#475569">• metrics, thresholds</text>
  <text x="52" y="320" font-family="sans-serif" font-size="12" fill="#475569">• hard/advisory gates</text>
  <text x="52" y="338" font-family="sans-serif" font-size="12" fill="#475569">• evidence type</text>
  <text x="52" y="356" font-family="sans-serif" font-size="12" fill="#475569">• run_when_changed</text>

  <rect x="368" y="280" width="280" height="100" rx="8" fill="#fff" stroke="#cbd5e1"/>
  <text x="380" y="302" font-family="sans-serif" font-size="12" fill="#475569">• compile, type check</text>
  <text x="380" y="320" font-family="sans-serif" font-size="12" fill="#475569">• lint, policy</text>
  <text x="380" y="338" font-family="sans-serif" font-size="12" fill="#475569">• unit tests</text>
  <text x="380" y="356" font-family="sans-serif" font-size="12" fill="#475569">• file budget</text>

  <rect x="696" y="280" width="280" height="100" rx="8" fill="#fff" stroke="#cbd5e1"/>
  <text x="708" y="302" font-family="sans-serif" font-size="12" fill="#475569">• API/schema drift</text>
  <text x="708" y="320" font-family="sans-serif" font-size="12" fill="#475569">• blast radius</text>
  <text x="708" y="338" font-family="sans-serif" font-size="12" fill="#475569">• missing evidence</text>
  <text x="708" y="356" font-family="sans-serif" font-size="12" fill="#475569">• review triggers</text>

  <rect x="1024" y="280" width="280" height="100" rx="8" fill="#fff" stroke="#cbd5e1"/>
  <text x="1036" y="302" font-family="sans-serif" font-size="12" fill="#475569">• API contract</text>
  <text x="1036" y="320" font-family="sans-serif" font-size="12" fill="#475569">• E2E tests</text>
  <text x="1036" y="338" font-family="sans-serif" font-size="12" fill="#475569">• security scan</text>
  <text x="1036" y="356" font-family="sans-serif" font-size="12" fill="#475569">• performance</text>

  <rect x="1352" y="280" width="208" height="100" rx="8" fill="#fff" stroke="#cbd5e1"/>
  <text x="1364" y="302" font-family="sans-serif" font-size="12" fill="#475569">• PASS/WARN/BLOCK</text>
  <text x="1364" y="320" font-family="sans-serif" font-size="12" fill="#475569">• weighted score</text>
  <text x="1364" y="338" font-family="sans-serif" font-size="12" fill="#475569">• tune thresholds</text>
  <text x="1364" y="356" font-family="sans-serif" font-size="12" fill="#475569">• stronger checks</text>

  <!-- Judgment Structure -->
  <rect x="40" y="410" width="1520" height="120" rx="10" fill="#f1f5f9" stroke="#94a3b8"/>
  <text x="60" y="440" font-family="sans-serif" font-size="18" font-weight="700" fill="#1e293b">Judgment Structure</text>

  <rect x="60" y="460" width="440" height="48" rx="8" fill="#d1fae5" stroke="#10b981"/>
  <rect x="72" y="470" width="12" height="12" rx="2" fill="#10b981"/>
  <text x="92" y="480" font-family="sans-serif" font-size="13" font-weight="600" fill="#047857">Machine auto-blocks</text>
  <text x="72" y="498" font-family="sans-serif" font-size="12" fill="#475569">compile, lint, type checks</text>

  <rect x="530" y="460" width="440" height="48" rx="8" fill="#fef3c7" stroke="#f59e0b"/>
  <rect x="542" y="470" width="12" height="12" rx="2" fill="#f59e0b"/>
  <text x="562" y="480" font-family="sans-serif" font-size="13" font-weight="600" fill="#b45309">Machine assists</text>
  <text x="542" y="498" font-family="sans-serif" font-size="12" fill="#475569">risk routing, triggers</text>

  <rect x="1000" y="460" width="520" height="48" rx="8" fill="#fee2e2" stroke="#ef4444"/>
  <rect x="1012" y="470" width="12" height="12" rx="2" fill="#ef4444"/>
  <text x="1032" y="480" font-family="sans-serif" font-size="13" font-weight="600" fill="#b91c1c">Human intervenes</text>
  <text x="1012" y="498" font-family="sans-serif" font-size="12" fill="#475569">semantic ambiguity, validation</text>

  <!-- System Foundation -->
  <rect x="40" y="560" width="1520" height="120" rx="12" fill="#fefce8" stroke="#f59e0b" stroke-width="2"/>
  <text x="60" y="600" font-family="sans-serif" font-size="22" font-weight="700" fill="#1e293b">System Foundation</text>
  <text x="60" y="626" font-family="sans-serif" font-size="15" fill="#64748b">Entrix turns repository-native rules into executable decisions</text>

  <rect x="80" y="644" width="280" height="42" rx="8" fill="#fff" stroke="#cbd5e1" stroke-width="1.5"/>
  <text x="110" y="672" font-family="sans-serif" font-size="15" font-weight="600" fill="#334155">docs/fitness/*.md</text>
  <path d="M360 665 H410" stroke="#64748b" stroke-width="2.5" marker-end="url(#arrow)" fill="none"/>
  <rect x="420" y="644" width="320" height="42" rx="8" fill="#fff" stroke="#cbd5e1" stroke-width="1.5"/>
  <text x="450" y="672" font-family="sans-serif" font-size="15" font-weight="600" fill="#334155">entrix orchestration</text>
  <path d="M740 665 H790" stroke="#64748b" stroke-width="2.5" marker-end="url(#arrow)" fill="none"/>
  <rect x="800" y="644" width="480" height="42" rx="8" fill="#fff" stroke="#cbd5e1" stroke-width="1.5"/>
  <text x="830" y="672" font-family="sans-serif" font-size="15" font-weight="600" fill="#334155">gates + score + triggers + evidence</text>

  <!-- Codified -->
  <rect x="40" y="710" width="1520" height="110" rx="12" fill="#f1f5f9" stroke="#94a3b8" stroke-width="2"/>
  <text x="60" y="750" font-family="sans-serif" font-size="22" font-weight="700" fill="#1e293b">Codified in Repo</text>
  <text x="60" y="776" font-family="sans-serif" font-size="15" fill="#64748b">Rules, evidence, and execution logic stored in version control</text>

  <rect x="80" y="788" width="340" height="38" rx="8" fill="#fff" stroke="#cbd5e1" stroke-width="1.5"/>
  <text x="110" y="814" font-family="sans-serif" font-size="15" font-weight="600" fill="#334155">rules: docs/fitness</text>
  <path d="M420 807 H470" stroke="#64748b" stroke-width="2.5" marker-end="url(#arrow)" fill="none"/>
  <rect x="480" y="788" width="400" height="38" rx="8" fill="#fff" stroke="#cbd5e1" stroke-width="1.5"/>
  <text x="510" y="814" font-family="sans-serif" font-size="15" font-weight="600" fill="#334155">evidence: VERIFIED/TODO/BLOCKED</text>
  <path d="M880 807 H930" stroke="#64748b" stroke-width="2.5" marker-end="url(#arrow)" fill="none"/>
  <rect x="940" y="788" width="400" height="38" rx="8" fill="#fff" stroke="#cbd5e1" stroke-width="1.5"/>
  <text x="970" y="814" font-family="sans-serif" font-size="15" font-weight="600" fill="#334155">execution: tier, scope, triggers</text>

  <!-- Feedback Loop -->
  <rect x="40" y="850" width="1520" height="100" rx="12" fill="#f1f5f9" stroke="#94a3b8" stroke-width="2"/>
  <text x="60" y="890" font-family="sans-serif" font-size="22" font-weight="700" fill="#1e293b">Feedback Loop</text>
  <text x="60" y="916" font-family="sans-serif" font-size="15" fill="#64748b">Continuous improvement from production insights</text>

  <rect x="100" y="926" width="280" height="38" rx="8" fill="#fff" stroke="#cbd5e1" stroke-width="1.5"/>
  <text x="130" y="952" font-family="sans-serif" font-size="15" font-weight="600" fill="#334155">incident detected</text>
  <path d="M380 945 H430" stroke="#64748b" stroke-width="2.5" marker-end="url(#arrow)" fill="none"/>
  <rect x="440" y="926" width="280" height="38" rx="8" fill="#fff" stroke="#cbd5e1" stroke-width="1.5"/>
  <text x="470" y="952" font-family="sans-serif" font-size="15" font-weight="600" fill="#334155">update rules</text>
  <path d="M720 945 H770" stroke="#64748b" stroke-width="2.5" marker-end="url(#arrow)" fill="none"/>
  <rect x="780" y="926" width="280" height="38" rx="8" fill="#fff" stroke="#cbd5e1" stroke-width="1.5"/>
  <text x="810" y="952" font-family="sans-serif" font-size="15" font-weight="600" fill="#334155">tune thresholds</text>
  <path d="M1060 945 H1110" stroke="#64748b" stroke-width="2.5" marker-end="url(#arrow)" fill="none"/>
  <rect x="1120" y="926" width="300" height="38" rx="8" fill="#fff" stroke="#cbd5e1" stroke-width="1.5"/>
  <text x="1150" y="952" font-family="sans-serif" font-size="15" font-weight="600" fill="#334155">add stronger checks</text>
</svg>
